# Blender v2.81 (sub 16) OBJ File: ''
# www.blender.org
mtllib fuel_shatter_end.mtl
o Plane_Plane.000
v 0.734513 3.859539 0.437062
v 1.432438 2.323835 0.688933
v 0.507005 2.323838 -0.236498
v 1.933263 0.894710 3.331402
v 1.235339 2.430413 3.079531
v 1.007833 0.894724 3.331399
v 0.104805 -1.809335 2.348092
v 0.733220 -1.809335 2.976506
v 0.104805 -1.809335 2.976506
v -0.156878 -2.874046 0.298132
v -0.156878 -2.874046 0.926548
v -0.246811 -2.770297 1.014836
v -0.246813 -2.770308 0.089406
v -0.785772 -2.531162 1.654253
v -0.157357 -2.531162 1.654253
v 0.049725 -2.427427 1.742543
v -0.875705 -2.427413 1.742541
v 2.039449 -2.127900 0.081787
v 1.411034 -2.127900 -0.546628
v 1.321099 -2.024162 -0.755354
v 2.246531 -2.024165 0.170077
v -3.243857 0.356339 1.253878
v -3.016351 1.892029 1.002009
v -3.243859 0.356328 0.328448
vt 0.000000 0.000000
vt 0.000000 0.000000
vt 0.000000 0.000000
vt 0.000000 0.000000
vt 0.000000 0.000000
vt 0.000000 0.000000
vt 0.000000 0.000000
vt 0.000000 0.000000
vt 0.000000 0.000000
vt 0.000000 0.000000
vt 0.000000 0.000000
vt 0.000000 0.000000
vt 0.000000 0.000000
vt 0.000000 0.000000
vt 0.000000 0.000000
vt 0.000000 0.000000
vt 0.000000 0.000000
vt 0.000000 0.000000
vt 0.000000 0.000000
vt 0.000000 0.000000
vt 0.000000 0.000000
vt 0.000000 0.000000
vt 0.000000 0.000000
vt 0.000000 0.000000
vn 0.6926 0.2012 -0.6926
vn 0.0000 0.1618 0.9868
vn 0.0000 -1.0000 0.0000
vn -0.7556 -0.6550 0.0000
vn -0.0000 -0.6481 0.7615
vn 0.5495 -0.6293 -0.5495
vn -0.9892 0.1465 0.0000
usemtl Material.002
s 1
f 1/1/1 2/2/1 3/3/1
f 4/4/2 5/5/2 6/6/2
f 7/7/3 8/8/3 9/9/3
f 10/10/4 11/11/4 12/12/4 13/13/4
f 14/14/5 15/15/5 16/16/5 17/17/5
f 18/18/6 19/19/6 20/20/6 21/21/6
f 22/22/7 23/23/7 24/24/7
