# Blender v2.81 (sub 16) OBJ File: ''
# www.blender.org
mtllib fuel_shatter_mid.mtl
o Plane_Plane.001
v 0.379959 1.509302 0.803767
v 0.351152 0.231749 -0.325813
v -0.817874 0.794675 -0.154525
v 0.635050 0.354957 0.751562
v -0.810610 1.255503 0.841041
v -0.107525 -0.086966 0.420341
v -0.534049 -0.598170 0.220782
v -0.383127 0.156657 0.664932
v -0.845851 -0.058046 0.297925
v -0.555610 -0.168663 0.036050
v -0.717084 0.261478 0.464782
v -0.829530 0.376393 0.436547
v -0.591738 -0.257058 -0.194812
v -0.167261 -0.111407 0.365152
v 0.290502 -0.040328 0.789777
v 0.348029 -0.002074 1.027824
v -0.326098 -0.106736 0.402508
v 0.197552 -0.247669 0.118020
v -0.223255 0.497685 -0.121102
v -0.209963 0.743698 -0.162542
v 0.409734 -0.353945 0.189597
v -1.078945 0.483312 0.707957
v -0.382530 1.317262 -0.429175
v -0.948897 -0.191267 0.087917
vt 0.331800 0.500000
vt 0.331800 0.500000
vt 0.331800 0.500000
vt 0.252000 0.500000
vt 0.252000 0.500000
vt 0.252000 0.500000
vt 0.453400 0.500000
vt 0.453400 0.500000
vt 0.453400 0.500000
vt 0.259600 0.500000
vt 0.259600 0.500000
vt 0.259600 0.500000
vt 0.259600 0.500000
vt 0.320400 0.500000
vt 0.320400 0.500000
vt 0.320400 0.500000
vt 0.320400 0.500000
vt 0.324200 0.500000
vt 0.324200 0.500000
vt 0.324200 0.500000
vt 0.324200 0.500000
vt 0.271000 0.500000
vt 0.271000 0.500000
vt 0.271000 0.500000
vn 0.2033 0.6460 -0.7358
vn -0.1797 -0.3786 0.9079
vn -0.4600 -0.3802 0.8024
vn -0.7117 -0.6116 0.3455
vn 0.0079 -0.9876 0.1568
vn 0.2355 -0.1738 -0.9562
vn -0.8938 0.1976 -0.4025
usemtl Material.001
s 1
f 1/1/1 2/2/1 3/3/1
f 4/4/2 5/5/2 6/6/2
f 7/7/3 8/8/3 9/9/3
f 10/10/4 11/11/4 12/12/4 13/13/4
f 14/14/5 15/15/5 16/16/5 17/17/5
f 18/18/6 19/19/6 20/20/6 21/21/6
f 22/22/7 23/23/7 24/24/7
