# Blender v2.81 (sub 16) OBJ File: ''
# www.blender.org
mtllib heart_shatter_second.mtl
o Plane
v -0.454115 5.726715 -0.100707
v -0.454138 5.726477 -0.097591
v 0.771224 5.173913 0.872443
v 0.494855 4.134453 0.460019
v 1.238291 3.479863 0.035057
v 1.020548 3.624544 -0.370713
v 0.781786 5.573781 -1.385340
v 1.040245 5.472426 -1.538264
v 1.292337 5.321553 -1.909852
v 0.808283 3.786599 -0.529415
v -0.450689 5.398738 0.388463
v -1.770190 5.031271 1.319149
v -0.473332 4.479460 2.195348
v -0.467635 6.164248 -1.321030
v 0.073497 6.089279 -1.869619
v -0.924747 5.967109 -2.324520
v 0.434198 4.005369 -1.562375
vt 0.000000 0.499206
vt 0.000000 0.497643
vt 0.511044 0.000000
vt 0.511044 0.000000
vt 1.000000 0.337665
vt 0.748515 0.418675
vt 0.497030 0.499686
vt 0.748515 0.615605
vt 1.000000 0.731524
vt 0.497030 0.499686
vt 0.500767 1.000000
vt 0.000000 0.499206
vt 0.511044 0.000000
vt 0.497030 0.499686
vt 1.000000 0.731524
vt 0.500767 1.000000
vt 0.500767 1.000000
vn 0.3609 0.9297 0.0736
vn 0.6371 0.7678 -0.0681
vn 0.2399 0.9453 -0.2211
vn 0.0720 0.8886 0.4530
vn -0.0408 0.9838 -0.1747
usemtl Material.001
s 1
f 1/1/1 2/2/1 3/3/1
f 4/4/2 5/5/2 6/6/2
f 7/7/3 8/8/3 9/9/3
f 4/4/2 6/6/2 10/10/2
f 11/11/4 12/12/4 13/13/4
f 14/14/5 15/15/5 16/16/5
f 4/4/2 10/10/2 17/17/2
