# Blender v2.81 (sub 16) OBJ File: ''
# www.blender.org
mtllib heart_shatter_first.mtl
o Plane
v -1.641325 2.659811 -0.338029
v -1.641304 2.659759 -0.334904
v -0.316522 2.546467 0.655003
v -0.408810 2.262885 0.553564
v 0.568023 2.186306 0.104441
v 0.299007 2.202249 -0.296022
v -0.001275 2.630032 -0.659498
v 0.269264 2.611800 -0.823619
v 0.539323 2.584819 -1.211860
v 0.029126 2.220689 -0.448759
v -0.648595 2.571790 -1.000478
v -1.956215 2.507903 0.013593
v -0.640958 2.391758 1.018916
v -0.309938 2.780381 -0.643971
v 0.229721 2.765138 -1.198886
v -0.770927 2.740134 -1.664106
v -0.422225 2.243972 -1.473721
vt 0.000000 0.499206
vt 0.000000 0.497643
vt 0.511044 0.000000
vt 0.511044 0.000000
vt 1.000000 0.337665
vt 0.748515 0.418675
vt 0.497030 0.499686
vt 0.748515 0.615605
vt 1.000000 0.731524
vt 0.497030 0.499686
vt 0.500767 1.000000
vt 0.000000 0.499206
vt 0.511044 0.000000
vt 0.497030 0.499686
vt 1.000000 0.731524
vt 0.500767 1.000000
vt 0.500767 1.000000
vn 0.0732 0.9972 0.0162
vn 0.0737 0.9972 -0.0098
vn 0.0436 0.9983 -0.0391
vn 0.0201 0.9959 0.0887
vn -0.0084 0.9993 -0.0356
usemtl Material.001
s 1
f 1/1/1 2/2/1 3/3/1
f 4/4/2 5/5/2 6/6/2
f 7/7/3 8/8/3 9/9/3
f 4/4/2 6/6/2 10/10/2
f 11/11/4 12/12/4 13/13/4
f 14/14/5 15/15/5 16/16/5
f 4/4/2 10/10/2 17/17/2
