# Blender v2.81 (sub 16) OBJ File: ''
# www.blender.org
mtllib fuel.mtl
o Plane_Plane.001
v -0.405705 1.639438 0.379697
v -0.543278 0.000000 0.543278
v -0.633211 0.103749 0.631566
v 0.085137 0.000000 0.543278
v 0.292219 0.103735 0.631568
v -0.633213 0.103738 -0.293863
v -0.543278 0.000000 -0.085137
vt 0.000000 0.000000
vt 0.000000 0.000000
vt 0.000000 0.000000
vt 0.000000 0.000000
vt 0.000000 0.000000
vt 0.000000 0.000000
vt 0.000000 0.000000
vn 0.6926 0.2012 -0.6926
vn -0.0000 0.1618 0.9868
vn 0.0000 -1.0000 0.0000
vn -0.7556 -0.6550 0.0000
vn -0.0000 -0.6481 0.7615
vn 0.5495 -0.6293 -0.5495
vn -0.9892 0.1465 0.0000
usemtl Material.001
s off
f 1/1/1 5/2/1 6/3/1
f 5/2/2 1/1/2 3/4/2
f 7/5/3 4/6/3 2/7/3
f 7/5/4 2/7/4 3/4/4 6/3/4
f 2/7/5 4/6/5 5/2/5 3/4/5
f 4/6/6 7/5/6 6/3/6 5/2/6
f 3/4/7 1/1/7 6/3/7
