# Blender v2.81 (sub 16) OBJ File: ''
# www.blender.org
mtllib fuel_shatter_end.mtl
o Plane_Plane.001
v 1.158096 1.155825 0.341193
v -0.113660 1.041101 -0.789469
v -0.530108 1.222332 0.437957
v 0.728765 0.715441 1.243986
v -0.874938 0.251300 0.895230
v 0.621707 0.315721 0.416228
v -0.836191 -0.620419 0.677501
v -0.674651 0.199792 0.375890
v -0.953310 -0.312713 0.142239
v -0.621768 -0.180292 0.309862
v -0.914423 0.325909 0.079603
v -1.008228 0.320561 -0.053883
v -0.577257 -0.424889 0.285215
v 0.283613 -0.015370 0.499960
v 0.355182 -0.246270 1.080019
v 0.263833 -0.394054 1.256807
v 0.158424 -0.054018 0.402591
v 0.249001 -0.079754 -0.410499
v 0.367418 0.613581 0.132709
v 0.521546 0.739899 0.283390
v 0.347159 -0.281135 -0.516564
v -1.469205 0.895034 0.187753
v -0.361093 0.218206 -0.699675
v -1.536895 0.027359 0.502359
vt 0.691800 0.500000
vt 0.691800 0.500000
vt 0.691800 0.500000
vt 0.612000 0.500000
vt 0.612000 0.500000
vt 0.612000 0.500000
vt 0.813400 0.500000
vt 0.813400 0.500000
vt 0.813400 0.500000
vt 0.619600 0.500000
vt 0.619600 0.500000
vt 0.619600 0.500000
vt 0.619600 0.500000
vt 0.680400 0.500000
vt 0.680400 0.500000
vt 0.680400 0.500000
vt 0.680400 0.500000
vt 0.684200 0.500000
vt 0.684200 0.500000
vt 0.684200 0.500000
vt 0.684200 0.500000
vt 0.631000 0.500000
vt 0.631000 0.500000
vt 0.631000 0.500000
vn 0.0312 0.9903 -0.1356
vn 0.1700 -0.8958 0.4106
vn -0.8767 0.3084 0.3691
vn -0.7974 -0.2024 0.5685
vn 0.5245 -0.7668 -0.3700
vn 0.3022 0.5554 -0.7747
vn -0.6842 -0.2008 -0.7011
usemtl Material.001
s 1
f 1/1/1 2/2/1 3/3/1
f 4/4/2 5/5/2 6/6/2
f 7/7/3 8/8/3 9/9/3
f 10/10/4 11/11/4 12/12/4 13/13/4
f 14/14/5 15/15/5 16/16/5 17/17/5
f 18/18/6 19/19/6 20/20/6 21/21/6
f 22/22/7 23/23/7 24/24/7
